<?xml version="1.0" encoding="UTF-8"?>
<svg width="106px" height="106px" viewBox="0 0 106 106" version="1.1" xmlns="http://www.w3.org/2000/svg" xmlns:xlink="http://www.w3.org/1999/xlink">
    <!-- Generator: Sketch 47 (45396) - http://www.bohemiancoding.com/sketch -->
    <title>BK_white</title>
    <desc>Created with Sketch.</desc>
    <defs></defs>
    <g id="Page-1" stroke="none" stroke-width="1" fill="none" fill-rule="evenodd">
        <g id="BK_white" fill-rule="nonzero" fill="#FFFFFF">
            <g id="Group" transform="translate(15.000000, 31.000000)">
                <path d="M32.501,31.8054346 C32.501,33.79185 32.133,35.5314807 31.395,37.0212922 C30.66,38.5121152 29.615,39.7541306 28.264,40.7483497 C26.912,41.7415575 25.285,42.486969 23.382,42.9835728 C21.479,43.4811881 19.361,43.7299957 17.027,43.7299957 L0.878,43.7299957 L0.878,17.7063351 L7.879,17.7063351 L0.878,7.58310082 L0.878,0.129997253 L16.72,0.129997253 C19.135,0.129997253 21.254,0.472866314 23.077,1.15455878 C24.897,1.83827408 26.444,2.73843179 27.713,3.85705475 C28.654,4.97466629 29.391,6.12464305 29.923,7.30395079 C30.455,8.48426995 30.721,9.81933532 30.721,11.3101583 L30.721,11.745066 C30.721,12.9466248 30.548,14.033894 30.2,15.005862 C29.852,15.9788415 29.402,16.8496682 28.85,17.6142965 C28.296,18.3819591 27.672,19.0424119 26.976,19.6017234 C26.28,20.1610349 25.565,20.6262849 24.827,20.9994964 C26.013,21.4546323 27.089,21.98259 28.052,22.582358 C29.013,23.1831374 29.821,23.887081 30.478,24.6941887 C31.132,25.5012964 31.634,26.4560704 31.982,27.5524422 C32.33,28.6488141 32.503,29.9424115 32.503,31.4332345 L32.503,31.8054346 L32.501,31.8054346 Z M9.352,35.4697845 L17.458,35.4697845 C19.299,35.4697845 20.804,35.0874703 21.971,34.3208191 C23.137,33.5551793 23.72,32.3242895 23.72,30.6251154 L23.72,30.2529154 C23.72,28.8045717 23.168,27.6343667 22.063,26.7443231 C20.959,25.8542795 19.279,25.4082463 17.028,25.4082463 L9.353,25.4082463 L9.353,35.4697845 L9.352,35.4697845 Z M9.659,8.01800848 L16.719,18.016839 C20.117,17.6861069 21.816,16.0718915 21.816,13.1721699 L21.816,12.8616661 C21.816,11.3303866 21.314,10.1399533 20.312,9.29137765 C19.308,8.44280201 17.886,8.01800848 16.043,8.01800848 L9.659,8.01800848 L9.659,8.01800848 Z" id="Shape"></path>
                <g transform="translate(36.000000, 0.000000)">
                    <rect id="Rectangle-path" x="0.351" y="0.154" width="9.903" height="43.54"></rect>
                    <polygon id="Shape" points="12.352 21.119 27.267 0.154 37.679 0.154 22.899 21.135 39.123 43.694 27.474 43.694"></polygon>
                </g>
            </g>
            <path d="M105.314,105.24 L0.685,105.24 L0.685,0.609 L105.314,0.609 L105.314,105.24 Z M5.685,100.24 L100.314,100.24 L100.314,5.609 L5.685,5.609 L5.685,100.24 Z" id="Shape"></path>
        </g>
    </g>
</svg>