<?xml version="1.0" encoding="UTF-8"?>
<svg width="504px" height="182px" viewBox="0 0 504 182" version="1.1" xmlns="http://www.w3.org/2000/svg" xmlns:xlink="http://www.w3.org/1999/xlink">
    <!-- Generator: Sketch 47 (45396) - http://www.bohemiancoding.com/sketch -->
    <title>BK_white</title>
    <desc>Created with Sketch.</desc>
    <defs></defs>
    <g id="Page-1" stroke="none" stroke-width="1" fill="none" fill-rule="evenodd">
        <g id="BK_white" fill-rule="nonzero" fill="#000000">
            <g id="Group" transform="translate(0.000000, 144.000000)">
                <path d="M26.143,26.685 C26.143,28.265 25.846,29.647 25.254,30.832 C24.661,32.017 23.822,33.004 22.736,33.794 C21.65,34.584 20.341,35.176 18.811,35.571 C17.28,35.966 15.577,36.164 13.701,36.164 L0.716,36.164 L0.716,15.476 L6.345,15.476 L0.716,7.428 L0.716,1.503 L13.454,1.503 C15.395,1.503 17.1,1.774 18.564,2.317 C20.028,2.861 21.271,3.576 22.292,4.465 C23.049,5.354 23.642,6.267 24.069,7.205 C24.497,8.143 24.712,9.204 24.712,10.389 L24.712,10.735 C24.712,11.69 24.571,12.554 24.292,13.327 C24.012,14.1 23.649,14.792 23.206,15.401 C22.761,16.01 22.259,16.536 21.7,16.981 C21.14,17.425 20.563,17.796 19.972,18.092 C20.926,18.455 21.79,18.874 22.564,19.351 C23.337,19.829 23.988,20.388 24.514,21.03 C25.04,21.672 25.445,22.43 25.724,23.301 C26.003,24.173 26.144,25.201 26.144,26.386 L26.144,26.685 L26.143,26.685 Z M7.529,29.597 L14.046,29.597 C15.527,29.597 16.736,29.293 17.675,28.684 C18.613,28.075 19.082,27.096 19.082,25.745 L19.082,25.449 C19.082,24.297 18.638,23.368 17.749,22.659 C16.86,21.951 15.51,21.598 13.7,21.598 L7.529,21.598 L7.529,29.597 L7.529,29.597 Z M7.775,7.774 L13.453,15.723 C16.185,15.46 17.551,14.176 17.551,11.872 L17.551,11.625 C17.551,10.407 17.149,9.461 16.342,8.786 C15.535,8.112 14.392,7.774 12.91,7.774 L7.775,7.774 Z" id="Shape"></path>
                <path d="M57.79,36.213 L55.074,29.35 L41.546,29.35 L38.979,36.213 L29.795,36.213 L44.459,1.257 L52.655,1.257 L67.17,36.213 L57.79,36.213 L57.79,36.213 Z M48.408,10.589 L43.965,22.587 L52.754,22.587 L48.408,10.589 Z" id="Shape"></path>
                <path d="M178.885,36.213 L176.169,29.35 L162.641,29.35 L160.074,36.213 L150.891,36.213 L165.554,1.257 L173.75,1.257 L188.266,36.213 L178.885,36.213 L178.885,36.213 Z M169.504,10.589 L165.061,22.587 L173.848,22.587 L169.504,10.589 Z" id="Shape"></path>
                <path d="M91.51,10.342 C90.786,9.421 89.84,8.688 88.672,8.145 C87.503,7.602 86.375,7.33 85.289,7.33 C84.729,7.33 84.162,7.379 83.586,7.478 C83.01,7.577 82.492,7.767 82.031,8.046 C81.569,8.326 81.183,8.688 80.871,9.132 C80.557,9.576 80.402,10.144 80.402,10.835 C80.402,11.428 80.525,11.922 80.771,12.316 C81.018,12.711 81.38,13.057 81.857,13.353 C82.335,13.649 82.902,13.92 83.56,14.167 C84.219,14.413 84.96,14.669 85.783,14.932 C86.969,15.327 88.203,15.764 89.486,16.241 C90.769,16.718 91.937,17.352 92.992,18.142 C94.045,18.932 94.917,19.912 95.608,21.08 C96.298,22.249 96.644,23.706 96.644,25.45 C96.644,27.458 96.275,29.195 95.534,30.659 C94.794,32.124 93.798,33.333 92.547,34.288 C91.296,35.243 89.864,35.951 88.252,36.412 C86.639,36.872 84.977,37.102 83.266,37.102 C80.764,37.102 78.344,36.665 76.008,35.794 C73.67,34.922 71.729,33.68 70.182,32.067 L75.711,26.439 C76.567,27.493 77.693,28.373 79.094,29.08 C80.492,29.788 81.883,30.141 83.266,30.141 C83.891,30.141 84.5,30.076 85.092,29.944 C85.685,29.813 86.203,29.598 86.647,29.302 C87.092,29.006 87.446,28.611 87.709,28.117 C87.972,27.623 88.103,27.031 88.103,26.34 C88.103,25.682 87.939,25.123 87.609,24.661 C87.281,24.201 86.812,23.781 86.203,23.402 C85.594,23.024 84.836,22.678 83.932,22.365 C83.027,22.053 81.998,21.715 80.846,21.353 C79.727,20.991 78.632,20.563 77.563,20.069 C76.493,19.575 75.54,18.942 74.7,18.169 C73.86,17.396 73.185,16.457 72.675,15.355 C72.165,14.253 71.91,12.911 71.91,11.331 C71.91,9.389 72.306,7.727 73.095,6.345 C73.885,4.962 74.921,3.827 76.205,2.938 C77.488,2.049 78.937,1.399 80.549,0.987 C82.162,0.576 83.791,0.37 85.438,0.37 C87.413,0.37 89.429,0.732 91.487,1.456 C93.544,2.181 95.345,3.25 96.893,4.666 L91.51,10.342 Z" id="Shape"></path>
                <polygon id="Shape" points="119.505 8.466 119.505 36.214 111.063 36.214 111.063 8.466 101.188 8.466 101.188 1.257 129.379 1.257 129.379 8.466"></polygon>
                <polygon id="Shape" points="136.193 36.213 136.193 1.257 144.685 1.257 144.685 36.213 136.193 36.213"></polygon>
                <polygon id="Shape" points="215.934 36.213 201.863 13.354 201.715 13.354 201.912 36.213 193.717 36.213 193.717 1.257 203.344 1.257 217.365 24.068 217.513 24.068 217.316 1.257 225.511 1.257 225.511 36.213 215.934 36.213"></polygon>
                <path d="M311.025,36.213 L303.434,22.339 L300.557,22.339 L300.557,36.213 L292.312,36.213 L292.312,1.257 L305.643,1.257 C307.322,1.257 308.958,1.43 310.555,1.776 C312.152,2.121 313.583,2.707 314.85,3.528 C316.117,4.352 317.129,5.438 317.887,6.787 C318.644,8.137 319.022,9.816 319.022,11.823 C319.022,14.193 318.38,16.185 317.097,17.798 C315.813,19.411 314.035,20.562 311.765,21.254 L320.899,36.213 L311.025,36.213 Z M310.679,11.972 C310.679,11.15 310.505,10.483 310.158,9.972 C309.811,9.462 309.365,9.067 308.819,8.787 C308.273,8.508 307.661,8.318 306.983,8.219 C306.305,8.121 305.651,8.072 305.023,8.072 L300.509,8.072 L300.509,16.218 L304.527,16.218 C305.22,16.218 305.932,16.161 306.66,16.046 C307.388,15.931 308.049,15.725 308.645,15.429 C309.24,15.133 309.727,14.705 310.107,14.145 C310.489,13.585 310.679,12.86 310.679,11.972 Z" id="Shape"></path>
                <path d="M364.445,18.587 C364.445,21.352 363.967,23.879 363.013,26.166 C362.059,28.455 360.734,30.412 359.038,32.042 C357.343,33.672 355.327,34.93 352.99,35.819 C350.653,36.708 348.118,37.152 345.386,37.152 C342.654,37.152 340.128,36.707 337.808,35.819 C335.488,34.93 333.479,33.672 331.785,32.042 C330.089,30.413 328.764,28.455 327.809,26.166 C326.855,23.879 326.378,21.352 326.378,18.587 C326.378,15.79 326.855,13.263 327.809,11.008 C328.763,8.754 330.088,6.836 331.785,5.256 C333.479,3.676 335.488,2.459 337.808,1.603 C340.128,0.747 342.654,0.319 345.386,0.319 C348.117,0.319 350.653,0.747 352.99,1.603 C355.327,2.46 357.343,3.676 359.038,5.256 C360.733,6.836 362.058,8.754 363.013,11.008 C363.968,13.264 364.445,15.79 364.445,18.587 Z M355.411,18.587 C355.411,17.073 355.164,15.658 354.671,14.341 C354.176,13.025 353.492,11.897 352.621,10.959 C351.748,10.021 350.695,9.281 349.461,8.737 C348.227,8.194 346.869,7.923 345.388,7.923 C343.908,7.923 342.557,8.195 341.34,8.737 C340.122,9.281 339.068,10.021 338.179,10.959 C337.29,11.898 336.608,13.025 336.131,14.341 C335.653,15.658 335.415,17.073 335.415,18.587 C335.415,20.167 335.661,21.624 336.155,22.957 C336.648,24.29 337.332,25.434 338.204,26.388 C339.076,27.343 340.122,28.092 341.34,28.635 C342.557,29.178 343.907,29.45 345.388,29.45 C346.869,29.45 348.218,29.178 349.437,28.635 C350.655,28.092 351.708,27.344 352.597,26.388 C353.486,25.434 354.176,24.29 354.671,22.957 C355.164,21.624 355.411,20.167 355.411,18.587 Z" id="Shape"></path>
                <path d="M398.044,36.263 C395.755,36.822 393.262,37.102 390.564,37.102 C387.766,37.102 385.19,36.658 382.836,35.769 C380.483,34.88 378.458,33.629 376.764,32.017 C375.069,30.404 373.744,28.47 372.789,26.215 C371.834,23.961 371.357,21.451 371.357,18.686 C371.357,15.889 371.842,13.354 372.814,11.083 C373.784,8.812 375.125,6.878 376.837,5.281 C378.548,3.685 380.556,2.46 382.86,1.603 C385.164,0.747 387.648,0.319 390.316,0.319 C393.08,0.319 395.647,0.739 398.017,1.578 C400.387,2.417 402.313,3.545 403.793,4.96 L398.461,11.033 C397.638,10.079 396.552,9.298 395.202,8.688 C393.852,8.08 392.322,7.774 390.61,7.774 C389.129,7.774 387.763,8.046 386.512,8.589 C385.261,9.132 384.174,9.889 383.254,10.86 C382.331,11.832 381.615,12.983 381.106,14.316 C380.595,15.649 380.34,17.106 380.34,18.686 C380.34,20.299 380.57,21.781 381.031,23.129 C381.492,24.48 382.174,25.639 383.081,26.61 C383.985,27.581 385.104,28.338 386.437,28.881 C387.77,29.424 389.292,29.695 391.004,29.695 C391.991,29.695 392.929,29.621 393.817,29.473 C394.706,29.325 395.529,29.086 396.287,28.757 L396.287,22.388 L389.621,22.388 L389.621,15.574 L404.038,15.574 L404.038,34.089 C402.33,34.98 400.33,35.704 398.044,36.263 Z" id="Shape"></path>
                <path d="M437.889,36.263 C435.6,36.822 433.107,37.102 430.41,37.102 C427.611,37.102 425.035,36.658 422.682,35.769 C420.328,34.88 418.305,33.629 416.61,32.017 C414.915,30.404 413.589,28.47 412.635,26.215 C411.681,23.961 411.204,21.451 411.204,18.686 C411.204,15.889 411.688,13.354 412.66,11.083 C413.63,8.812 414.972,6.878 416.683,5.281 C418.394,3.685 420.402,2.46 422.706,1.603 C425.01,0.747 427.495,0.319 430.162,0.319 C432.927,0.319 435.494,0.739 437.863,1.578 C440.233,2.417 442.159,3.545 443.639,4.96 L438.307,11.033 C437.485,10.079 436.398,9.298 435.048,8.688 C433.698,8.08 432.168,7.774 430.456,7.774 C428.976,7.774 427.609,8.046 426.358,8.589 C425.107,9.132 424.02,9.889 423.1,10.86 C422.177,11.832 421.461,12.983 420.952,14.316 C420.442,15.649 420.186,17.106 420.186,18.686 C420.186,20.299 420.417,21.781 420.877,23.129 C421.338,24.48 422.021,25.639 422.927,26.61 C423.831,27.581 424.951,28.338 426.284,28.881 C427.618,29.424 429.139,29.695 430.851,29.695 C431.838,29.695 432.777,29.621 433.666,29.473 C434.555,29.325 435.377,29.086 436.135,28.757 L436.135,22.388 L429.47,22.388 L429.47,15.574 L443.886,15.574 L443.886,34.089 C442.175,34.98 440.176,35.704 437.889,36.263 Z" id="Shape"></path>
                <polygon id="Shape" points="450.505 36.213 450.505 1.257 474.006 1.257 474.006 8.367 458.65 8.367 458.65 14.983 473.167 14.983 473.167 21.747 458.65 21.747 458.65 29.005 474.894 29.005 474.894 36.213 450.505 36.213"></polygon>
                <polygon id="Shape" points="481.264 36.213 481.264 1.257 489.757 1.257 489.757 28.857 503.284 28.857 503.284 36.213"></polygon>
                <g transform="translate(255.000000, 1.000000)">
                    <rect id="Rectangle-path" x="0.545" y="0.331" width="7.964" height="35.008"></rect>
                    <polygon id="Shape" points="10.194 17.188 22.185 0.331 30.559 0.331 18.676 17.2 31.72 35.338 22.352 35.338"></polygon>
                </g>
            </g>
            <g id="Group" transform="translate(214.000000, 31.000000)">
                <path d="M32.501,31.8054346 C32.501,33.79185 32.133,35.5314807 31.395,37.0212922 C30.66,38.5121152 29.615,39.7541306 28.264,40.7483497 C26.912,41.7415575 25.285,42.486969 23.382,42.9835728 C21.479,43.4811881 19.361,43.7299957 17.027,43.7299957 L0.878,43.7299957 L0.878,17.7063351 L7.879,17.7063351 L0.878,7.58310082 L0.878,0.129997253 L16.72,0.129997253 C19.135,0.129997253 21.254,0.472866314 23.077,1.15455878 C24.897,1.83827408 26.444,2.73843179 27.713,3.85705475 C28.654,4.97466629 29.391,6.12464305 29.923,7.30395079 C30.455,8.48426995 30.721,9.81933532 30.721,11.3101583 L30.721,11.745066 C30.721,12.9466248 30.548,14.033894 30.2,15.005862 C29.852,15.9788415 29.402,16.8496682 28.85,17.6142965 C28.296,18.3819591 27.672,19.0424119 26.976,19.6017234 C26.28,20.1610349 25.565,20.6262849 24.827,20.9994964 C26.013,21.4546323 27.089,21.98259 28.052,22.582358 C29.013,23.1831374 29.821,23.887081 30.478,24.6941887 C31.132,25.5012964 31.634,26.4560704 31.982,27.5524422 C32.33,28.6488141 32.503,29.9424115 32.503,31.4332345 L32.503,31.8054346 L32.501,31.8054346 Z M9.352,35.4697845 L17.458,35.4697845 C19.299,35.4697845 20.804,35.0874703 21.971,34.3208191 C23.137,33.5551793 23.72,32.3242895 23.72,30.6251154 L23.72,30.2529154 C23.72,28.8045717 23.168,27.6343667 22.063,26.7443231 C20.959,25.8542795 19.279,25.4082463 17.028,25.4082463 L9.353,25.4082463 L9.353,35.4697845 L9.352,35.4697845 Z M9.659,8.01800848 L16.719,18.016839 C20.117,17.6861069 21.816,16.0718915 21.816,13.1721699 L21.816,12.8616661 C21.816,11.3303866 21.314,10.1399533 20.312,9.29137765 C19.308,8.44280201 17.886,8.01800848 16.043,8.01800848 L9.659,8.01800848 L9.659,8.01800848 Z" id="Shape"></path>
                <g transform="translate(36.000000, 0.000000)">
                    <rect id="Rectangle-path" x="0.351" y="0.154" width="9.903" height="43.54"></rect>
                    <polygon id="Shape" points="12.352 21.119 27.267 0.154 37.679 0.154 22.899 21.135 39.123 43.694 27.474 43.694"></polygon>
                </g>
            </g>
            <path d="M304.314,105.24 L199.685,105.24 L199.685,0.609 L304.314,0.609 L304.314,105.24 Z M204.685,100.24 L299.314,100.24 L299.314,5.609 L204.685,5.609 L204.685,100.24 Z" id="Shape"></path>
        </g>
    </g>
</svg>